SA-Beginner-Bold.ufo
<glyph name="numbersign" format="2">
  <advance width="744"/>
  <unicode hex="0023"/>
  <outline>
    <contour>
      <point x="215" y="0" type="curve" smooth="yes"/>
      <point x="239" y="0"/>
      <point x="267" y="10"/>
      <point x="270" y="39" type="curve" smooth="yes"/>
      <point x="321" y="523" type="line" smooth="yes"/>
      <point x="324" y="552"/>
      <point x="299" y="568"/>
      <point x="272" y="568" type="curve" smooth="yes"/>
      <point x="247" y="568"/>
      <point x="227" y="557"/>
      <point x="224" y="530" type="curve" smooth="yes"/>
      <point x="172" y="47" type="line" smooth="yes"/>
      <point x="169" y="16"/>
      <point x="189" y="0"/>
    </contour>
    <contour>
      <point x="463" y="0" type="curve" smooth="yes"/>
      <point x="487" y="0"/>
      <point x="508" y="11"/>
      <point x="511" y="39" type="curve" smooth="yes"/>
      <point x="562" y="523" type="line" smooth="yes"/>
      <point x="566" y="555"/>
      <point x="541" y="568"/>
      <point x="518" y="568" type="curve" smooth="yes"/>
      <point x="494" y="568"/>
      <point x="467" y="558"/>
      <point x="464" y="531" type="curve" smooth="yes"/>
      <point x="413" y="47" type="line" smooth="yes"/>
      <point x="409" y="13"/>
      <point x="436" y="0"/>
    </contour>
    <contour>
      <point x="103" y="133" type="curve" smooth="yes"/>
      <point x="615" y="133" type="line" smooth="yes"/>
      <point x="644" y="133"/>
      <point x="662" y="153"/>
      <point x="661" y="177" type="curve" smooth="yes"/>
      <point x="659" y="200"/>
      <point x="639" y="218"/>
      <point x="609" y="218" type="curve" smooth="yes"/>
      <point x="97" y="218" type="line" smooth="yes"/>
      <point x="67" y="218"/>
      <point x="48" y="200"/>
      <point x="50" y="177" type="curve" smooth="yes"/>
      <point x="51" y="153"/>
      <point x="74" y="133"/>
    </contour>
    <contour>
      <point x="126" y="357" type="curve" smooth="yes"/>
      <point x="637" y="357" type="line" smooth="yes"/>
      <point x="667" y="357"/>
      <point x="687" y="375"/>
      <point x="685" y="399" type="curve" smooth="yes"/>
      <point x="683" y="422"/>
      <point x="661" y="442"/>
      <point x="631" y="442" type="curve" smooth="yes"/>
      <point x="120" y="442" type="line" smooth="yes"/>
      <point x="90" y="442"/>
      <point x="71" y="422"/>
      <point x="73" y="399" type="curve" smooth="yes"/>
      <point x="75" y="375"/>
      <point x="96" y="357"/>
    </contour>
  </outline>
</glyph>
<glyph name="quotesingle" format="2">
  <advance width="234"/>
  <unicode hex="0027"/>
  <outline>
    <contour>
      <point x="136" y="456" type="curve" smooth="yes"/>
      <point x="158" y="456"/>
      <point x="184" y="470"/>
      <point x="186" y="496" type="curve" smooth="yes"/>
      <point x="196" y="595" type="line" smooth="yes"/>
      <point x="199" y="629"/>
      <point x="173" y="650"/>
      <point x="145" y="650" type="curve" smooth="yes"/>
      <point x="122" y="650"/>
      <point x="97" y="635"/>
      <point x="94" y="610" type="curve" smooth="yes"/>
      <point x="84" y="510" type="line" smooth="yes"/>
      <point x="80" y="472"/>
      <point x="112" y="456"/>
    </contour>
  </outline>
</glyph>
<glyph name="comma" format="2">
  <advance width="256"/>
  <unicode hex="002C"/>
  <outline>
    <contour>
      <point x="76" y="-79" type="curve" smooth="yes"/>
      <point x="102" y="-79"/>
      <point x="123" y="-68"/>
      <point x="131" y="-37" type="curve" smooth="yes"/>
      <point x="157" y="67" type="line" smooth="yes"/>
      <point x="169" y="113"/>
      <point x="136" y="129"/>
      <point x="109" y="129" type="curve" smooth="yes"/>
      <point x="83" y="129"/>
      <point x="63" y="119"/>
      <point x="55" y="87" type="curve" smooth="yes"/>
      <point x="29" y="-17" type="line" smooth="yes"/>
      <point x="18" y="-62"/>
      <point x="50" y="-79"/>
    </contour>
  </outline>
</glyph>
<glyph name="hyphen" format="2">
  <advance width="382"/>
  <unicode hex="002D"/>
  <outline>
    <contour>
      <point x="100" y="154" type="curve" smooth="yes"/>
      <point x="245" y="154" type="line" smooth="yes"/>
      <point x="281.0" y="154.0"/>
      <point x="303" y="172"/>
      <point x="303" y="200" type="curve" smooth="yes"/>
      <point x="303" y="227"/>
      <point x="284.0" y="244.0"/>
      <point x="254" y="244" type="curve" smooth="yes"/>
      <point x="109" y="244" type="line" smooth="yes"/>
      <point x="73" y="244"/>
      <point x="51" y="226"/>
      <point x="51" y="198" type="curve" smooth="yes"/>
      <point x="51" y="171"/>
      <point x="70" y="154"/>
    </contour>
  </outline>
</glyph>
<glyph name="period" format="2">
  <advance width="256"/>
  <unicode hex="002E"/>
  <outline>
    <contour>
      <point x="99" y="0" type="curve" smooth="yes"/>
      <point x="132" y="0"/>
      <point x="162" y="30"/>
      <point x="162" y="65" type="curve" smooth="yes"/>
      <point x="162" y="98"/>
      <point x="132" y="126"/>
      <point x="99" y="126" type="curve" smooth="yes"/>
      <point x="64" y="126"/>
      <point x="37" y="98"/>
      <point x="37" y="65" type="curve" smooth="yes"/>
      <point x="37" y="30"/>
      <point x="64" y="0"/>
    </contour>
  </outline>
</glyph>
<glyph name="one" format="2">
  <advance width="232"/>
  <unicode hex="0031"/>
  <outline>
    <contour>
      <point x="83" y="0" type="curve" smooth="yes"/>
      <point x="112" y="0"/>
      <point x="134" y="18"/>
      <point x="137" y="51" type="curve" smooth="yes"/>
      <point x="185" y="515" type="line" smooth="yes"/>
      <point x="188" y="543"/>
      <point x="173" y="568"/>
      <point x="138" y="568" type="curve" smooth="yes"/>
      <point x="108" y="568"/>
      <point x="88" y="547"/>
      <point x="85" y="520" type="curve" smooth="yes"/>
      <point x="37" y="57" type="line" smooth="yes"/>
      <point x="33" y="21"/>
      <point x="50" y="0"/>
    </contour>
  </outline>
</glyph>
<glyph name="two" format="2">
  <advance width="443"/>
  <unicode hex="0032"/>
  <outline>
    <contour>
      <point x="364" y="44" type="curve" smooth="yes"/>
      <point x="364" y="71"/>
      <point x="344" y="86"/>
      <point x="311" y="86" type="curve" smooth="yes"/>
      <point x="137" y="86" type="line"/>
      <point x="148" y="63" type="line"/>
      <point x="217" y="149"/>
      <point x="289" y="232"/>
      <point x="315" y="265" type="curve" smooth="yes"/>
      <point x="379" y="345"/>
      <point x="410" y="403"/>
      <point x="410" y="450" type="curve" smooth="yes"/>
      <point x="410" y="523"/>
      <point x="356" y="568"/>
      <point x="268" y="568" type="curve" smooth="yes"/>
      <point x="202" y="568"/>
      <point x="119" y="540"/>
      <point x="79" y="503" type="curve" smooth="yes"/>
      <point x="52" y="478"/>
      <point x="56" y="456"/>
      <point x="70" y="437" type="curve" smooth="yes"/>
      <point x="83" y="420"/>
      <point x="117" y="412"/>
      <point x="146" y="438" type="curve" smooth="yes"/>
      <point x="177" y="466"/>
      <point x="224" y="481"/>
      <point x="261" y="481" type="curve" smooth="yes"/>
      <point x="291" y="481"/>
      <point x="310" y="470"/>
      <point x="310" y="452" type="curve" smooth="yes"/>
      <point x="310" y="426"/>
      <point x="284" y="384"/>
      <point x="252" y="343" type="curve" smooth="yes"/>
      <point x="228" y="313"/>
      <point x="138" y="207"/>
      <point x="37" y="80" type="curve" smooth="yes"/>
      <point x="6" y="41"/>
      <point x="22" y="0"/>
      <point x="61" y="0" type="curve" smooth="yes"/>
      <point x="317" y="0" type="line" smooth="yes"/>
      <point x="346" y="0"/>
      <point x="364" y="18"/>
    </contour>
  </outline>
</glyph>
<glyph name="three" format="2">
  <advance width="464"/>
  <unicode hex="0033"/>
  <outline>
    <contour>
      <point x="27" y="105" type="curve" smooth="yes"/>
      <point x="14" y="84"/>
      <point x="15" y="59"/>
      <point x="42" y="37" type="curve" smooth="yes"/>
      <point x="63" y="20"/>
      <point x="102" y="-1"/>
      <point x="171" y="-1" type="curve" smooth="yes"/>
      <point x="313" y="-1"/>
      <point x="390" y="53"/>
      <point x="401" y="161" type="curve" smooth="yes"/>
      <point x="409" y="239"/>
      <point x="346" y="314"/>
      <point x="238" y="322" type="curve"/>
      <point x="233" y="295" type="line"/>
      <point x="323" y="302"/>
      <point x="398" y="342"/>
      <point x="405" y="415" type="curve" smooth="yes"/>
      <point x="415" y="517"/>
      <point x="358" y="568"/>
      <point x="235" y="568" type="curve" smooth="yes"/>
      <point x="158" y="568"/>
      <point x="112" y="546"/>
      <point x="91" y="529" type="curve" smooth="yes"/>
      <point x="64" y="507"/>
      <point x="62" y="481"/>
      <point x="77" y="460" type="curve" smooth="yes"/>
      <point x="92" y="440"/>
      <point x="122" y="445"/>
      <point x="146" y="458" type="curve" smooth="yes"/>
      <point x="164" y="468"/>
      <point x="193" y="478"/>
      <point x="234" y="478" type="curve" smooth="yes"/>
      <point x="285" y="478"/>
      <point x="309" y="459"/>
      <point x="305" y="422" type="curve" smooth="yes"/>
      <point x="299" y="370"/>
      <point x="265" y="351"/>
      <point x="149" y="351" type="curve" smooth="yes"/>
      <point x="125" y="351"/>
      <point x="101" y="333"/>
      <point x="101" y="305" type="curve" smooth="yes"/>
      <point x="101" y="282"/>
      <point x="119" y="263"/>
      <point x="146" y="263" type="curve" smooth="yes"/>
      <point x="230" y="263"/>
      <point x="310" y="257"/>
      <point x="301" y="167" type="curve" smooth="yes"/>
      <point x="297" y="115"/>
      <point x="255" y="89"/>
      <point x="176" y="89" type="curve" smooth="yes"/>
      <point x="130" y="89"/>
      <point x="112" y="98"/>
      <point x="94" y="110" type="curve" smooth="yes"/>
      <point x="65" y="131"/>
      <point x="42" y="128"/>
    </contour>
  </outline>
</glyph>
<glyph name="five" format="2">
  <advance width="445"/>
  <unicode hex="0035"/>
  <outline>
    <contour>
      <point x="180" y="-1" type="curve" smooth="yes"/>
      <point x="302" y="-1"/>
      <point x="385" y="76"/>
      <point x="385" y="200" type="curve" smooth="yes"/>
      <point x="385" y="306"/>
      <point x="329" y="359"/>
      <point x="219" y="359" type="curve" smooth="yes"/>
      <point x="187" y="359"/>
      <point x="175" y="355"/>
      <point x="136" y="345" type="curve"/>
      <point x="160" y="327" type="line"/>
      <point x="183" y="514" type="line"/>
      <point x="150" y="483" type="line"/>
      <point x="368" y="483" type="line" smooth="yes"/>
      <point x="400" y="483"/>
      <point x="413" y="502"/>
      <point x="414" y="526" type="curve" smooth="yes"/>
      <point x="415" y="553"/>
      <point x="392" y="568"/>
      <point x="362" y="568" type="curve" smooth="yes"/>
      <point x="151" y="568" type="line" smooth="yes"/>
      <point x="108" y="568"/>
      <point x="87" y="552"/>
      <point x="83" y="521" type="curve" smooth="yes"/>
      <point x="59" y="309" type="line" smooth="yes"/>
      <point x="55" y="273"/>
      <point x="80" y="253"/>
      <point x="119" y="262" type="curve" smooth="yes"/>
      <point x="148" y="269"/>
      <point x="165" y="273"/>
      <point x="201" y="273" type="curve" smooth="yes"/>
      <point x="256" y="273"/>
      <point x="284" y="246"/>
      <point x="284" y="193" type="curve" smooth="yes"/>
      <point x="284" y="126"/>
      <point x="244" y="85"/>
      <point x="191" y="85" type="curve" smooth="yes"/>
      <point x="157" y="85"/>
      <point x="123" y="96"/>
      <point x="100" y="111" type="curve" smooth="yes"/>
      <point x="88" y="119"/>
      <point x="74" y="128"/>
      <point x="61" y="128" type="curve" smooth="yes"/>
      <point x="40" y="128"/>
      <point x="20" y="115"/>
      <point x="20" y="90" type="curve" smooth="yes"/>
      <point x="20" y="76"/>
      <point x="28" y="63"/>
      <point x="43" y="49" type="curve" smooth="yes"/>
      <point x="74" y="20"/>
      <point x="128" y="-1"/>
    </contour>
  </outline>
</glyph>
<glyph name="six" format="2">
  <advance width="436"/>
  <unicode hex="0036"/>
  <outline>
    <contour>
      <point x="33" y="66"/>
      <point x="93" y="-1"/>
      <point x="191" y="-1" type="curve" smooth="yes"/>
      <point x="301" y="-1"/>
      <point x="371" y="75"/>
      <point x="376" y="198" type="curve" smooth="yes"/>
      <point x="380" y="298"/>
      <point x="328" y="360"/>
      <point x="241" y="360" type="curve" smooth="yes"/>
      <point x="169" y="360"/>
      <point x="111" y="303"/>
      <point x="111" y="226" type="curve"/>
      <point x="130" y="175" type="line"/>
      <point x="130" y="229"/>
      <point x="166" y="270"/>
      <point x="215" y="270" type="curve" smooth="yes"/>
      <point x="254" y="270"/>
      <point x="277" y="238"/>
      <point x="276" y="186" type="curve" smooth="yes"/>
      <point x="274" y="126"/>
      <point x="243" y="89"/>
      <point x="196" y="89" type="curve" smooth="yes"/>
      <point x="155" y="89"/>
      <point x="130" y="122"/>
      <point x="130" y="175" type="curve" smooth="yes"/>
      <point x="130" y="363"/>
      <point x="180" y="479"/>
      <point x="261" y="479" type="curve" smooth="yes"/>
      <point x="281" y="479"/>
      <point x="300" y="471"/>
      <point x="314" y="460" type="curve" smooth="yes"/>
      <point x="346" y="435"/>
      <point x="362" y="432"/>
      <point x="385" y="455" type="curve" smooth="yes"/>
      <point x="406" y="476"/>
      <point x="406" y="498"/>
      <point x="382" y="519" type="curve" smooth="yes"/>
      <point x="345" y="552"/>
      <point x="306" y="568"/>
      <point x="267" y="568" type="curve" smooth="yes"/>
      <point x="122" y="568"/>
      <point x="33" y="418"/>
      <point x="33" y="174" type="curve" smooth="yes"/>
    </contour>
  </outline>
</glyph>
<glyph name="nine" format="2">
  <advance width="411"/>
  <unicode hex="0039"/>
  <outline>
    <contour>
      <point x="262" y="0" type="curve" smooth="yes"/>
      <point x="292" y="0"/>
      <point x="312" y="21"/>
      <point x="315" y="48" type="curve" smooth="yes"/>
      <point x="365" y="511" type="line" smooth="yes"/>
      <point x="369" y="547"/>
      <point x="352" y="568"/>
      <point x="319" y="568" type="curve" smooth="yes"/>
      <point x="290" y="568"/>
      <point x="268" y="544"/>
      <point x="264" y="511" type="curve" smooth="yes"/>
      <point x="215" y="53" type="line" smooth="yes"/>
      <point x="212" y="25"/>
      <point x="227" y="0"/>
    </contour>
    <contour>
      <point x="180" y="210" type="curve" smooth="yes"/>
      <point x="233" y="210"/>
      <point x="277" y="278"/>
      <point x="299" y="326" type="curve"/>
      <point x="317" y="480" type="line"/>
      <point x="261" y="480" type="line"/>
      <point x="232" y="317"/>
      <point x="216" y="300"/>
      <point x="181" y="300" type="curve" smooth="yes"/>
      <point x="158" y="300"/>
      <point x="146" y="336"/>
      <point x="152" y="388" type="curve" smooth="yes"/>
      <point x="159" y="453"/>
      <point x="181" y="478"/>
      <point x="211" y="478" type="curve" smooth="yes"/>
      <point x="240" y="478"/>
      <point x="255" y="474"/>
      <point x="306" y="396" type="curve"/>
      <point x="319" y="508" type="line"/>
      <point x="288" y="535"/>
      <point x="247" y="568"/>
      <point x="212" y="568" type="curve" smooth="yes"/>
      <point x="134" y="568"/>
      <point x="65" y="511"/>
      <point x="52" y="396" type="curve" smooth="yes"/>
      <point x="43" y="308"/>
      <point x="84" y="210"/>
    </contour>
  </outline>
</glyph>
<glyph name="colon" format="2">
  <advance width="256"/>
  <unicode hex="003A"/>
  <guideline x="62" y="306" angle="84.0" identifier="ZJiWTdyg8t"/>
  <outline>
    <contour>
      <point x="99" y="0" type="curve" smooth="yes"/>
      <point x="132" y="0"/>
      <point x="162" y="30"/>
      <point x="162" y="65" type="curve" smooth="yes"/>
      <point x="162" y="98"/>
      <point x="132" y="126"/>
      <point x="99" y="126" type="curve" smooth="yes"/>
      <point x="64" y="126"/>
      <point x="37" y="98"/>
      <point x="37" y="65" type="curve" smooth="yes"/>
      <point x="37" y="30"/>
      <point x="64" y="0"/>
    </contour>
    <contour>
      <point x="124" y="233" type="curve" smooth="yes"/>
      <point x="157" y="233"/>
      <point x="187" y="263"/>
      <point x="187" y="298" type="curve" smooth="yes"/>
      <point x="187" y="331"/>
      <point x="157" y="359"/>
      <point x="124" y="359" type="curve" smooth="yes"/>
      <point x="89" y="359"/>
      <point x="62" y="331"/>
      <point x="62" y="298" type="curve" smooth="yes"/>
      <point x="62" y="263"/>
      <point x="89" y="233"/>
    </contour>
  </outline>
</glyph>
<glyph name="semicolon" format="2">
  <advance width="256"/>
  <unicode hex="003B"/>
  <outline>
    <contour>
      <point x="76" y="-79" type="curve" smooth="yes"/>
      <point x="102" y="-79"/>
      <point x="123" y="-68"/>
      <point x="131" y="-37" type="curve" smooth="yes"/>
      <point x="157" y="67" type="line" smooth="yes"/>
      <point x="169" y="113"/>
      <point x="136" y="129"/>
      <point x="109" y="129" type="curve" smooth="yes"/>
      <point x="83" y="129"/>
      <point x="63" y="119"/>
      <point x="55" y="87" type="curve" smooth="yes"/>
      <point x="29" y="-17" type="line" smooth="yes"/>
      <point x="18" y="-62"/>
      <point x="50" y="-79"/>
    </contour>
    <contour>
      <point x="124" y="233" type="curve" smooth="yes"/>
      <point x="157" y="233"/>
      <point x="187" y="263"/>
      <point x="187" y="298" type="curve" smooth="yes"/>
      <point x="187" y="331"/>
      <point x="157" y="359"/>
      <point x="124" y="359" type="curve" smooth="yes"/>
      <point x="89" y="359"/>
      <point x="62" y="331"/>
      <point x="62" y="298" type="curve" smooth="yes"/>
      <point x="62" y="263"/>
      <point x="89" y="233"/>
    </contour>
  </outline>
</glyph>
<glyph name="less" format="2">
  <advance width="426"/>
  <unicode hex="003C"/>
  <outline>
    <contour>
      <point x="259" y="106" type="line" smooth="yes"/>
      <point x="281" y="93"/>
      <point x="308.0" y="94.0"/>
      <point x="322" y="108" type="curve" smooth="yes"/>
      <point x="341.0" y="126.0"/>
      <point x="341" y="158"/>
      <point x="312" y="174" type="curve" smooth="yes"/>
      <point x="157" y="259" type="line"/>
      <point x="152" y="217" type="line"/>
      <point x="328" y="286" type="line" smooth="yes"/>
      <point x="364" y="300"/>
      <point x="364.0" y="320.0"/>
      <point x="359" y="339" type="curve" smooth="yes"/>
      <point x="354.0" y="358.0"/>
      <point x="337" y="381"/>
      <point x="299" y="366" type="curve" smooth="yes"/>
      <point x="89" y="282" type="line" smooth="yes"/>
      <point x="73" y="276"/>
      <point x="63.0" y="258.0"/>
      <point x="63" y="243" type="curve" smooth="yes"/>
      <point x="63.0" y="231.0"/>
      <point x="65" y="218"/>
      <point x="80" y="209" type="curve" smooth="yes"/>
    </contour>
  </outline>
</glyph>
<glyph name="equal" format="2">
  <advance width="426"/>
  <unicode hex="003D"/>
  <outline>
    <contour>
      <point x="88" y="120" type="curve" smooth="yes"/>
      <point x="315" y="120" type="line" smooth="yes"/>
      <point x="349.0" y="120.0"/>
      <point x="361.0" y="144.0"/>
      <point x="361" y="163" type="curve" smooth="yes"/>
      <point x="361.0" y="183.0"/>
      <point x="349.0" y="206.0"/>
      <point x="315" y="206" type="curve" smooth="yes"/>
      <point x="88" y="206" type="line" smooth="yes"/>
      <point x="54.0" y="206.0"/>
      <point x="42.0" y="183.0"/>
      <point x="42" y="163" type="curve" smooth="yes"/>
      <point x="42.0" y="143.0"/>
      <point x="54.0" y="120.0"/>
    </contour>
    <contour>
      <point x="101" y="251" type="curve" smooth="yes"/>
      <point x="328" y="251" type="line" smooth="yes"/>
      <point x="362.0" y="251.0"/>
      <point x="374.0" y="275.0"/>
      <point x="374" y="294" type="curve" smooth="yes"/>
      <point x="374.0" y="314.0"/>
      <point x="362.0" y="337.0"/>
      <point x="328" y="337" type="curve" smooth="yes"/>
      <point x="101" y="337" type="line" smooth="yes"/>
      <point x="67.0" y="337.0"/>
      <point x="55.0" y="314.0"/>
      <point x="55" y="294" type="curve" smooth="yes"/>
      <point x="55.0" y="274.0"/>
      <point x="67.0" y="251.0"/>
    </contour>
  </outline>
</glyph>
<glyph name="greater" format="2">
  <advance width="426"/>
  <unicode hex="003E"/>
  <guideline x="131" y="333" angle="0" identifier="GqRMvt6B8x"/>
  <outline>
    <contour>
      <point x="130" y="98" type="curve" smooth="yes"/>
      <point x="340" y="182" type="line" smooth="yes"/>
      <point x="356" y="188"/>
      <point x="366.0" y="206.0"/>
      <point x="366" y="221" type="curve" smooth="yes"/>
      <point x="366.0" y="233.0"/>
      <point x="364" y="246"/>
      <point x="349" y="255" type="curve" smooth="yes"/>
      <point x="170" y="358" type="line" smooth="yes"/>
      <point x="142" y="374"/>
      <point x="123" y="372.0"/>
      <point x="107" y="356" type="curve" smooth="yes"/>
      <point x="89.0" y="338"/>
      <point x="88" y="306"/>
      <point x="117" y="290" type="curve" smooth="yes"/>
      <point x="272" y="205" type="line"/>
      <point x="277" y="247" type="line"/>
      <point x="101" y="178" type="line" smooth="yes"/>
      <point x="65" y="164"/>
      <point x="65.0" y="144.0"/>
      <point x="70" y="125" type="curve" smooth="yes"/>
      <point x="75.0" y="106.0"/>
      <point x="92" y="83"/>
    </contour>
  </outline>
</glyph>
<glyph name="B" format="2">
  <advance width="547"/>
  <unicode hex="0042"/>
  <outline>
    <contour>
      <point x="83" y="0" type="curve" smooth="yes"/>
      <point x="321" y="0"/>
      <point x="473" y="69"/>
      <point x="486" y="182" type="curve" smooth="yes"/>
      <point x="499" y="308"/>
      <point x="364" y="377"/>
      <point x="117" y="360" type="curve"/>
      <point x="109" y="281" type="line"/>
      <point x="290" y="294"/>
      <point x="391" y="256"/>
      <point x="383" y="195" type="curve" smooth="yes"/>
      <point x="375" y="139"/>
      <point x="285" y="99"/>
      <point x="137" y="97" type="curve"/>
      <point x="186" y="559" type="line"/>
      <point x="319" y="568"/>
      <point x="392" y="519"/>
      <point x="386" y="465" type="curve" smooth="yes"/>
      <point x="380" y="411"/>
      <point x="345" y="368"/>
      <point x="124" y="361" type="curve"/>
      <point x="117" y="304" type="line"/>
      <point x="437" y="316"/>
      <point x="476" y="385"/>
      <point x="485" y="469" type="curve" smooth="yes"/>
      <point x="499" y="599"/>
      <point x="380" y="665"/>
      <point x="150" y="650" type="curve" smooth="yes"/>
      <point x="117" y="648"/>
      <point x="99" y="643"/>
      <point x="95" y="602" type="curve" smooth="yes"/>
      <point x="36" y="53" type="line" smooth="yes"/>
      <point x="33" y="23"/>
      <point x="53" y="0"/>
    </contour>
  </outline>
</glyph>
<glyph name="C" format="2">
  <advance width="532"/>
  <unicode hex="0043"/>
  <outline>
    <contour>
      <point x="231" y="-5" type="curve" smooth="yes"/>
      <point x="340" y="-5"/>
      <point x="423" y="55"/>
      <point x="457" y="116" type="curve" smooth="yes"/>
      <point x="480" y="158"/>
      <point x="465" y="191"/>
      <point x="440" y="204" type="curve" smooth="yes"/>
      <point x="415" y="217"/>
      <point x="392" y="207"/>
      <point x="380" y="181" type="curve" smooth="yes"/>
      <point x="357" y="132"/>
      <point x="309" y="83"/>
      <point x="232" y="83" type="curve" smooth="yes"/>
      <point x="157" y="83"/>
      <point x="127" y="163"/>
      <point x="148" y="331" type="curve" smooth="yes"/>
      <point x="166" y="477"/>
      <point x="227" y="565"/>
      <point x="335" y="565" type="curve" smooth="yes"/>
      <point x="374" y="565"/>
      <point x="415" y="536"/>
      <point x="436" y="521" type="curve" smooth="yes"/>
      <point x="458" y="506"/>
      <point x="483" y="509"/>
      <point x="499" y="537" type="curve" smooth="yes"/>
      <point x="516" y="567"/>
      <point x="503" y="597"/>
      <point x="485" y="610" type="curve" smooth="yes"/>
      <point x="460" y="629"/>
      <point x="389" y="655"/>
      <point x="328" y="655" type="curve" smooth="yes"/>
      <point x="172" y="655"/>
      <point x="77" y="546"/>
      <point x="47" y="343" type="curve" smooth="yes"/>
      <point x="16" y="132"/>
      <point x="78" y="-5"/>
    </contour>
  </outline>
</glyph>
<glyph name="E" format="2">
  <advance width="531"/>
  <unicode hex="0045"/>
  <outline>
    <contour>
      <point x="75" y="0" type="curve" smooth="yes"/>
      <point x="407" y="0" type="line" smooth="yes"/>
      <point x="437" y="0"/>
      <point x="454" y="26"/>
      <point x="454" y="52" type="curve" smooth="yes"/>
      <point x="454" y="76"/>
      <point x="435" y="90"/>
      <point x="403" y="90" type="curve" smooth="yes"/>
      <point x="140" y="90" type="line"/>
      <point x="189" y="560" type="line"/>
      <point x="466" y="560" type="line" smooth="yes"/>
      <point x="496" y="560"/>
      <point x="514" y="580"/>
      <point x="514" y="606" type="curve" smooth="yes"/>
      <point x="514" y="631"/>
      <point x="493" y="650"/>
      <point x="462" y="650" type="curve" smooth="yes"/>
      <point x="145" y="650" type="line" smooth="yes"/>
      <point x="114.0" y="650.0"/>
      <point x="97" y="639"/>
      <point x="94" y="611" type="curve" smooth="yes"/>
      <point x="35" y="50" type="line" smooth="yes"/>
      <point x="32" y="22"/>
      <point x="45.0" y="0.0"/>
    </contour>
    <contour>
      <point x="112" y="288" type="line"/>
      <point x="410" y="288" type="line" smooth="yes"/>
      <point x="442" y="288"/>
      <point x="461" y="307"/>
      <point x="461" y="331" type="curve" smooth="yes"/>
      <point x="461" y="357"/>
      <point x="439" y="373"/>
      <point x="409" y="373" type="curve" smooth="yes"/>
      <point x="122" y="373" type="line"/>
    </contour>
  </outline>
</glyph>
<glyph name="H" format="2">
  <advance width="566"/>
  <unicode hex="0048"/>
  <outline>
    <contour>
      <point x="86" y="0" type="curve" smooth="yes"/>
      <point x="120" y="0"/>
      <point x="134" y="20"/>
      <point x="136" y="40" type="curve" smooth="yes"/>
      <point x="193" y="597" type="line" smooth="yes"/>
      <point x="197" y="632"/>
      <point x="179" y="650"/>
      <point x="150" y="650" type="curve" smooth="yes"/>
      <point x="123" y="650"/>
      <point x="97" y="637"/>
      <point x="94" y="609" type="curve" smooth="yes"/>
      <point x="36" y="49" type="line" smooth="yes"/>
      <point x="33" y="21"/>
      <point x="54" y="0"/>
    </contour>
    <contour>
      <point x="147" y="287" type="line"/>
      <point x="412" y="287" type="line"/>
      <point x="420" y="377" type="line"/>
      <point x="155" y="377" type="line"/>
    </contour>
    <contour>
      <point x="419" y="0" type="curve" smooth="yes"/>
      <point x="448" y="0"/>
      <point x="468" y="17"/>
      <point x="470" y="37" type="curve" smooth="yes"/>
      <point x="529" y="599" type="line" smooth="yes"/>
      <point x="532" y="631"/>
      <point x="511" y="650"/>
      <point x="480" y="650" type="curve" smooth="yes"/>
      <point x="452" y="650"/>
      <point x="432" y="635"/>
      <point x="430" y="613" type="curve" smooth="yes"/>
      <point x="371" y="49" type="line" smooth="yes"/>
      <point x="368" y="20"/>
      <point x="386" y="0"/>
    </contour>
  </outline>
</glyph>
<glyph name="I" format="2">
  <advance width="367"/>
  <unicode hex="0049"/>
  <outline>
    <contour>
      <point x="98" y="0" type="line"/>
      <point x="198" y="0" type="line"/>
      <point x="267" y="650" type="line"/>
      <point x="167" y="650" type="line"/>
    </contour>
    <contour>
      <point x="80" y="0" type="curve" smooth="yes"/>
      <point x="215" y="0" type="line" smooth="yes"/>
      <point x="251.0" y="0.0"/>
      <point x="273" y="18"/>
      <point x="273" y="46" type="curve" smooth="yes"/>
      <point x="273" y="73"/>
      <point x="254.0" y="90.0"/>
      <point x="224" y="90" type="curve" smooth="yes"/>
      <point x="89" y="90" type="line" smooth="yes"/>
      <point x="53" y="90"/>
      <point x="31" y="72"/>
      <point x="31" y="44" type="curve" smooth="yes"/>
      <point x="31" y="17"/>
      <point x="50" y="0"/>
    </contour>
    <contour>
      <point x="140" y="560" type="curve" smooth="yes"/>
      <point x="275" y="560" type="line" smooth="yes"/>
      <point x="311.0" y="560.0"/>
      <point x="333" y="578"/>
      <point x="333" y="606" type="curve" smooth="yes"/>
      <point x="333" y="633"/>
      <point x="314.0" y="650.0"/>
      <point x="284" y="650" type="curve" smooth="yes"/>
      <point x="149" y="650" type="line" smooth="yes"/>
      <point x="113" y="650"/>
      <point x="91" y="632"/>
      <point x="91" y="604" type="curve" smooth="yes"/>
      <point x="91" y="577"/>
      <point x="110" y="560"/>
    </contour>
  </outline>
</glyph>
<glyph name="Q" format="2">
  <advance width="538"/>
  <unicode hex="0051"/>
  <outline>
    <contour>
      <point x="235" y="-5" type="curve"/>
      <point x="375" y="-5"/>
      <point x="472" y="131"/>
      <point x="494" y="338" type="curve" smooth="yes"/>
      <point x="513" y="525"/>
      <point x="431" y="655"/>
      <point x="302" y="655" type="curve"/>
      <point x="162" y="655"/>
      <point x="65" y="519"/>
      <point x="43" y="312" type="curve" smooth="yes"/>
      <point x="24" y="125"/>
      <point x="106" y="-5"/>
    </contour>
    <contour>
      <point x="243" y="85" type="curve"/>
      <point x="171" y="85"/>
      <point x="129" y="176"/>
      <point x="142" y="312" type="curve" smooth="yes"/>
      <point x="156" y="463"/>
      <point x="214" y="565"/>
      <point x="294" y="565" type="curve"/>
      <point x="366" y="565"/>
      <point x="408" y="474"/>
      <point x="395" y="338" type="curve" smooth="yes"/>
      <point x="381" y="187"/>
      <point x="323" y="85"/>
    </contour>
    <contour>
      <point x="439" y="-16" type="curve" smooth="yes"/>
      <point x="460" y="2"/>
      <point x="462" y="28"/>
      <point x="445" y="52" type="curve" smooth="yes"/>
      <point x="337" y="201" type="line" smooth="yes"/>
      <point x="316" y="230"/>
      <point x="283" y="235"/>
      <point x="262" y="218" type="curve" smooth="yes"/>
      <point x="243" y="202"/>
      <point x="239" y="177"/>
      <point x="260" y="150" type="curve" smooth="yes"/>
      <point x="366" y="5" type="line" smooth="yes"/>
      <point x="386" y="-21"/>
      <point x="417" y="-34"/>
    </contour>
  </outline>
</glyph>
<glyph name="T" format="2">
  <advance width="502"/>
  <unicode hex="0054"/>
  <outline>
    <contour>
      <point x="220" y="-2" type="curve" smooth="yes"/>
      <point x="253" y="-2"/>
      <point x="269" y="22"/>
      <point x="271" y="43" type="curve" smooth="yes"/>
      <point x="326" y="574" type="line"/>
      <point x="225" y="574" type="line"/>
      <point x="171" y="49" type="line" smooth="yes"/>
      <point x="168" y="21"/>
      <point x="189" y="-2"/>
    </contour>
    <contour>
      <point x="100" y="560" type="curve" smooth="yes"/>
      <point x="468" y="560" type="line" smooth="yes"/>
      <point x="500" y="560"/>
      <point x="515" y="580"/>
      <point x="515" y="604" type="curve" smooth="yes"/>
      <point x="515" y="630"/>
      <point x="491" y="650"/>
      <point x="461" y="650" type="curve" smooth="yes"/>
      <point x="93" y="650" type="line" smooth="yes"/>
      <point x="63" y="650"/>
      <point x="48" y="630"/>
      <point x="47" y="604" type="curve" smooth="yes"/>
      <point x="46" y="580"/>
      <point x="68" y="560"/>
    </contour>
  </outline>
</glyph>
<glyph name="V" format="2">
  <advance width="456"/>
  <unicode hex="0056"/>
  <outline>
    <contour>
      <point x="184" y="0" type="curve" smooth="yes"/>
      <point x="213" y="0"/>
      <point x="229" y="17"/>
      <point x="237" y="36" type="curve" smooth="yes"/>
      <point x="466" y="591" type="line" smooth="yes"/>
      <point x="480" y="625"/>
      <point x="458" y="650"/>
      <point x="426" y="650" type="curve" smooth="yes"/>
      <point x="397" y="650"/>
      <point x="377" y="638"/>
      <point x="369" y="618" type="curve" smooth="yes"/>
      <point x="245" y="304" type="line"/>
      <point x="190" y="149" type="line"/>
      <point x="209" y="147" type="line"/>
      <point x="188" y="304" type="line"/>
      <point x="146" y="610" type="line" smooth="yes"/>
      <point x="143" y="633"/>
      <point x="121" y="650"/>
      <point x="89" y="650" type="curve" smooth="yes"/>
      <point x="60" y="650"/>
      <point x="41" y="634"/>
      <point x="46" y="604" type="curve" smooth="yes"/>
      <point x="135" y="46" type="line" smooth="yes"/>
      <point x="139" y="21"/>
      <point x="154" y="0"/>
    </contour>
  </outline>
</glyph>
<glyph name="W" format="2">
  <advance width="794"/>
  <unicode hex="0057"/>
  <outline>
    <contour>
      <point x="184" y="0.0" type="curve" smooth="yes"/>
      <point x="209" y="0.0"/>
      <point x="226" y="14"/>
      <point x="238" y="43" type="curve" smooth="yes"/>
      <point x="388" y="412" type="line"/>
      <point x="414" y="493" type="line"/>
      <point x="410" y="494" type="line"/>
      <point x="418" y="412" type="line"/>
      <point x="472" y="44" type="line" smooth="yes"/>
      <point x="476" y="15"/>
      <point x="496" y="0.0"/>
      <point x="523" y="0.0" type="curve" smooth="yes"/>
      <point x="548" y="0.0"/>
      <point x="565" y="14"/>
      <point x="577" y="43" type="curve" smooth="yes"/>
      <point x="804" y="591" type="line" smooth="yes"/>
      <point x="814" y="615"/>
      <point x="799" y="650"/>
      <point x="761" y="650" type="curve" smooth="yes"/>
      <point x="729" y="650"/>
      <point x="712" y="630"/>
      <point x="706" y="616" type="curve" smooth="yes"/>
      <point x="572" y="276" type="line"/>
      <point x="529" y="148" type="line"/>
      <point x="540" y="146" type="line"/>
      <point x="526" y="276" type="line"/>
      <point x="477" y="610" type="line" smooth="yes"/>
      <point x="473" y="635"/>
      <point x="458" y="650"/>
      <point x="424" y="650.0" type="curve" smooth="yes"/>
      <point x="391" y="650"/>
      <point x="378" y="634"/>
      <point x="370" y="612" type="curve" smooth="yes"/>
      <point x="242" y="277" type="line"/>
      <point x="196" y="151" type="line"/>
      <point x="206" y="149" type="line"/>
      <point x="190" y="280" type="line"/>
      <point x="145" y="610" type="line" smooth="yes"/>
      <point x="142" y="633"/>
      <point x="121" y="650"/>
      <point x="89" y="650" type="curve" smooth="yes"/>
      <point x="60" y="650"/>
      <point x="40" y="634"/>
      <point x="45" y="604" type="curve" smooth="yes"/>
      <point x="133" y="44" type="line" smooth="yes"/>
      <point x="138" y="15"/>
      <point x="157" y="0.0"/>
    </contour>
  </outline>
</glyph>
<glyph name="Z" format="2">
  <advance width="500"/>
  <unicode hex="005A"/>
  <outline>
    <contour>
      <point x="55" y="0" type="curve"/>
      <point x="376" y="0" type="line" smooth="yes"/>
      <point x="408" y="0"/>
      <point x="423" y="19"/>
      <point x="423" y="43" type="curve" smooth="yes"/>
      <point x="423" y="70"/>
      <point x="403" y="90"/>
      <point x="373" y="90" type="curve" smooth="yes"/>
      <point x="110" y="90" type="line"/>
      <point x="123" y="65" type="line"/>
      <point x="474" y="577" type="line" smooth="yes"/>
      <point x="495" y="608"/>
      <point x="480" y="650"/>
      <point x="437" y="650" type="curve"/>
      <point x="112" y="650" type="line" smooth="yes"/>
      <point x="82" y="650"/>
      <point x="64" y="630"/>
      <point x="66" y="604" type="curve" smooth="yes"/>
      <point x="67" y="580"/>
      <point x="87" y="560"/>
      <point x="119" y="560" type="curve" smooth="yes"/>
      <point x="376" y="560" type="line"/>
      <point x="363" y="585" type="line"/>
      <point x="13" y="70" type="line" smooth="yes"/>
      <point x="-6" y="42"/>
      <point x="11" y="0"/>
    </contour>
  </outline>
</glyph>
<glyph name="backslash" format="2">
  <advance width="397"/>
  <unicode hex="005C"/>
  <outline>
    <contour>
      <point x="137" y="650" type="curve" smooth="yes"/>
      <point x="105" y="650"/>
      <point x="78" y="625"/>
      <point x="87" y="590" type="curve" smooth="yes"/>
      <point x="243" y="-16" type="line" smooth="yes"/>
      <point x="249" y="-41"/>
      <point x="274" y="-52"/>
      <point x="294" y="-52" type="curve" smooth="yes"/>
      <point x="324" y="-52"/>
      <point x="352" y="-26"/>
      <point x="343" y="10" type="curve" smooth="yes"/>
      <point x="186" y="618" type="line" smooth="yes"/>
      <point x="180" y="640"/>
      <point x="156" y="650"/>
    </contour>
  </outline>
</glyph>
<glyph name="bracketright" format="2">
  <advance width="360"/>
  <unicode hex="005D"/>
  <outline>
    <contour>
      <point x="40" y="-300" type="curve"/>
      <point x="171" y="-300" type="line" smooth="yes"/>
      <point x="201.0" y="-300.0"/>
      <point x="219" y="-287"/>
      <point x="222" y="-259" type="curve" smooth="yes"/>
      <point x="314" y="601" type="line" smooth="yes"/>
      <point x="317" y="629"/>
      <point x="296.0" y="650.0"/>
      <point x="263" y="650" type="curve" smooth="yes"/>
      <point x="127" y="650" type="line" smooth="yes"/>
      <point x="96" y="650"/>
      <point x="81" y="634"/>
      <point x="78" y="607" type="curve" smooth="yes"/>
      <point x="75" y="583"/>
      <point x="101" y="565"/>
      <point x="132" y="565" type="curve" smooth="yes"/>
      <point x="208" y="565" type="line"/>
      <point x="125" y="-215" type="line"/>
      <point x="34" y="-215" type="line" smooth="yes"/>
      <point x="8" y="-215"/>
      <point x="-12" y="-233"/>
      <point x="-14" y="-257" type="curve" smooth="yes"/>
      <point x="-16" y="-281"/>
      <point x="6" y="-300"/>
    </contour>
  </outline>
</glyph>
<glyph name="underscore" format="2">
  <advance width="464"/>
  <unicode hex="005F"/>
  <outline>
    <contour>
      <point x="74" y="-98" type="curve" smooth="yes"/>
      <point x="300" y="-98" type="line" smooth="yes"/>
      <point x="336" y="-98"/>
      <point x="358" y="-80"/>
      <point x="358" y="-52" type="curve" smooth="yes"/>
      <point x="358" y="-25"/>
      <point x="339" y="-8"/>
      <point x="309" y="-8" type="curve" smooth="yes"/>
      <point x="83" y="-8" type="line" smooth="yes"/>
      <point x="47" y="-8"/>
      <point x="25" y="-26"/>
      <point x="25" y="-54" type="curve" smooth="yes"/>
      <point x="25" y="-81"/>
      <point x="44" y="-98"/>
    </contour>
  </outline>
</glyph>
<glyph name="a" format="2">
  <advance width="378"/>
  <unicode hex="0061"/>
  <outline>
    <contour>
      <point x="126" y="-1.0" type="curve" smooth="yes"/>
      <point x="192" y="-1"/>
      <point x="216" y="75"/>
      <point x="239" y="114" type="curve"/>
      <point x="228" y="262" type="line"/>
      <point x="207" y="130"/>
      <point x="178.0" y="89.0"/>
      <point x="145" y="89" type="curve" smooth="yes"/>
      <point x="120" y="89"/>
      <point x="110" y="119"/>
      <point x="116" y="170" type="curve" smooth="yes"/>
      <point x="123" y="236"/>
      <point x="145" y="270"/>
      <point x="176" y="270" type="curve" smooth="yes"/>
      <point x="198" y="270"/>
      <point x="230" y="259"/>
      <point x="272" y="198" type="curve"/>
      <point x="284" y="303" type="line"/>
      <point x="259" y="337"/>
      <point x="211" y="360"/>
      <point x="177" y="360" type="curve" smooth="yes"/>
      <point x="98" y="360"/>
      <point x="31" y="294"/>
      <point x="19" y="179" type="curve" smooth="yes"/>
      <point x="10" y="91"/>
      <point x="40" y="-1"/>
    </contour>
    <contour>
      <point x="250" y="0" type="curve" smooth="yes"/>
      <point x="274" y="0"/>
      <point x="300" y="14"/>
      <point x="303" y="43" type="curve" smooth="yes"/>
      <point x="330" y="300" type="line" smooth="yes"/>
      <point x="333" y="333"/>
      <point x="308" y="350"/>
      <point x="281" y="350" type="curve" smooth="yes"/>
      <point x="256" y="350"/>
      <point x="235" y="337"/>
      <point x="232" y="308" type="curve" smooth="yes"/>
      <point x="205" y="49" type="line" smooth="yes"/>
      <point x="202" y="17"/>
      <point x="223" y="0"/>
    </contour>
  </outline>
</glyph>
<glyph name="c" format="2">
  <advance width="342"/>
  <unicode hex="0063"/>
  <outline>
    <contour>
      <point x="153" y="-4" type="curve" smooth="yes"/>
      <point x="212" y="-4"/>
      <point x="253" y="35"/>
      <point x="277" y="78" type="curve" smooth="yes"/>
      <point x="288" y="98"/>
      <point x="281" y="124"/>
      <point x="260" y="135" type="curve" smooth="yes"/>
      <point x="237" y="147"/>
      <point x="212" y="140"/>
      <point x="201" y="120" type="curve" smooth="yes"/>
      <point x="186" y="93"/>
      <point x="172" y="81"/>
      <point x="157" y="81" type="curve" smooth="yes"/>
      <point x="128" y="81"/>
      <point x="113" y="119"/>
      <point x="120" y="181" type="curve" smooth="yes"/>
      <point x="127" y="249"/>
      <point x="152" y="276"/>
      <point x="184" y="276" type="curve" smooth="yes"/>
      <point x="200" y="276"/>
      <point x="207" y="271"/>
      <point x="212" y="264" type="curve" smooth="yes"/>
      <point x="224" y="247"/>
      <point x="247" y="238"/>
      <point x="268" y="251" type="curve" smooth="yes"/>
      <point x="290" y="264"/>
      <point x="295" y="291"/>
      <point x="284" y="307" type="curve" smooth="yes"/>
      <point x="264" y="338"/>
      <point x="230" y="360"/>
      <point x="185" y="360" type="curve" smooth="yes"/>
      <point x="110" y="360"/>
      <point x="32" y="300"/>
      <point x="20" y="188" type="curve" smooth="yes"/>
      <point x="7" y="69"/>
      <point x="58" y="-4"/>
    </contour>
  </outline>
</glyph>
<glyph name="g" format="2">
  <advance width="382"/>
  <unicode hex="0067"/>
  <outline>
    <contour>
      <point x="126" y="-1.0" type="curve" smooth="yes"/>
      <point x="192" y="-1"/>
      <point x="216" y="75"/>
      <point x="239" y="114" type="curve"/>
      <point x="228" y="262" type="line"/>
      <point x="207" y="130"/>
      <point x="178.0" y="89.0"/>
      <point x="145" y="89" type="curve" smooth="yes"/>
      <point x="120" y="89"/>
      <point x="110" y="119"/>
      <point x="116" y="170" type="curve" smooth="yes"/>
      <point x="123" y="236"/>
      <point x="145" y="270"/>
      <point x="176" y="270" type="curve" smooth="yes"/>
      <point x="198" y="270"/>
      <point x="230" y="259"/>
      <point x="272" y="198" type="curve"/>
      <point x="284" y="303" type="line"/>
      <point x="259" y="337"/>
      <point x="211" y="360"/>
      <point x="177" y="360" type="curve" smooth="yes"/>
      <point x="98" y="360"/>
      <point x="31" y="294"/>
      <point x="19" y="179" type="curve" smooth="yes"/>
      <point x="10" y="91"/>
      <point x="40" y="-1"/>
    </contour>
    <contour>
      <point x="112" y="-300" type="curve" smooth="yes"/>
      <point x="205" y="-300"/>
      <point x="275" y="-240"/>
      <point x="288" y="-120" type="curve" smooth="yes"/>
      <point x="333" y="292" type="line" smooth="yes"/>
      <point x="337" y="326"/>
      <point x="312" y="350"/>
      <point x="285" y="350" type="curve" smooth="yes"/>
      <point x="259" y="350"/>
      <point x="236" y="331"/>
      <point x="233" y="301" type="curve" smooth="yes"/>
      <point x="188" y="-114" type="line" smooth="yes"/>
      <point x="180" y="-184"/>
      <point x="156" y="-210"/>
      <point x="118" y="-210" type="curve" smooth="yes"/>
      <point x="97" y="-210"/>
      <point x="76" y="-200"/>
      <point x="59" y="-183" type="curve" smooth="yes"/>
      <point x="48" y="-172"/>
      <point x="31" y="-158"/>
      <point x="5" y="-175" type="curve" smooth="yes"/>
      <point x="-18" y="-190"/>
      <point x="-25" y="-222"/>
      <point x="-4" y="-247" type="curve" smooth="yes"/>
      <point x="16" y="-272"/>
      <point x="59" y="-300"/>
    </contour>
  </outline>
</glyph>
<glyph name="j" format="2">
  <advance width="209"/>
  <unicode hex="006A"/>
  <outline>
    <contour>
      <point x="-69" y="-300" type="curve" smooth="yes"/>
      <point x="24" y="-300"/>
      <point x="92" y="-240"/>
      <point x="105" y="-120" type="curve"/>
      <point x="150" y="299" type="line" smooth="yes"/>
      <point x="154" y="332"/>
      <point x="130" y="350"/>
      <point x="104" y="350" type="curve" smooth="yes"/>
      <point x="79" y="350"/>
      <point x="55" y="337"/>
      <point x="52" y="308" type="curve" smooth="yes"/>
      <point x="7" y="-114" type="line"/>
      <point x="0" y="-184"/>
      <point x="-25" y="-210"/>
      <point x="-63" y="-210" type="curve" smooth="yes"/>
      <point x="-84" y="-210"/>
      <point x="-105" y="-200"/>
      <point x="-122" y="-183" type="curve" smooth="yes"/>
      <point x="-133" y="-172"/>
      <point x="-150" y="-158"/>
      <point x="-176" y="-175" type="curve" smooth="yes"/>
      <point x="-199" y="-190"/>
      <point x="-206" y="-222"/>
      <point x="-185" y="-247" type="curve" smooth="yes"/>
      <point x="-165" y="-272"/>
      <point x="-122" y="-300"/>
    </contour>
    <contour>
      <point x="119" y="427" type="curve" smooth="yes"/>
      <point x="151" y="427"/>
      <point x="174" y="456"/>
      <point x="174" y="483" type="curve" smooth="yes"/>
      <point x="174" y="509"/>
      <point x="151" y="537"/>
      <point x="119" y="537" type="curve" smooth="yes"/>
      <point x="89" y="537"/>
      <point x="64" y="511"/>
      <point x="64" y="482" type="curve" smooth="yes"/>
      <point x="64" y="452"/>
      <point x="89" y="427"/>
    </contour>
  </outline>
</glyph>
<glyph name="o" format="2">
  <advance width="364"/>
  <unicode hex="006F"/>
  <outline>
    <contour>
      <point x="147" y="-1" type="curve" smooth="yes"/>
      <point x="239.0" y="-1.0"/>
      <point x="301" y="68"/>
      <point x="313" y="180" type="curve" smooth="yes"/>
      <point x="324" y="291"/>
      <point x="275" y="360"/>
      <point x="182" y="360" type="curve" smooth="yes"/>
      <point x="93.0" y="360.0"/>
      <point x="31" y="291"/>
      <point x="19" y="179" type="curve" smooth="yes"/>
      <point x="8" y="68"/>
      <point x="57" y="-1"/>
    </contour>
    <contour>
      <point x="151" y="89" type="curve" smooth="yes"/>
      <point x="123.0" y="89.0"/>
      <point x="110" y="120"/>
      <point x="117" y="170" type="curve" smooth="yes"/>
      <point x="124" y="232"/>
      <point x="148" y="270"/>
      <point x="181" y="270" type="curve" smooth="yes"/>
      <point x="209.0" y="270.0"/>
      <point x="222" y="239"/>
      <point x="215" y="189" type="curve" smooth="yes"/>
      <point x="208" y="127"/>
      <point x="184" y="89"/>
    </contour>
  </outline>
</glyph>
<glyph name="w" format="2">
  <advance width="480"/>
  <unicode hex="0077"/>
  <outline>
    <contour>
      <point x="74" y="39" type="line" smooth="yes"/>
      <point x="80" y="14"/>
      <point x="99" y="-1"/>
      <point x="120" y="-1" type="curve" smooth="yes"/>
      <point x="145" y="-1"/>
      <point x="165" y="12"/>
      <point x="172" y="32" type="curve" smooth="yes"/>
      <point x="227" y="195" type="line"/>
      <point x="218" y="197" type="line"/>
      <point x="241" y="38" type="line" smooth="yes"/>
      <point x="244" y="14"/>
      <point x="264" y="-1"/>
      <point x="288" y="-1" type="curve" smooth="yes"/>
      <point x="309" y="-1"/>
      <point x="328" y="11"/>
      <point x="338" y="31" type="curve" smooth="yes"/>
      <point x="456" y="276" type="line" smooth="yes"/>
      <point x="474" y="314"/>
      <point x="451" y="350"/>
      <point x="416" y="350.0" type="curve" smooth="yes"/>
      <point x="397" y="350"/>
      <point x="376" y="341"/>
      <point x="369" y="323" type="curve" smooth="yes"/>
      <point x="295" y="138" type="line"/>
      <point x="304" y="136" type="line"/>
      <point x="283" y="314" type="line" smooth="yes"/>
      <point x="280" y="337"/>
      <point x="260" y="350"/>
      <point x="237" y="350" type="curve" smooth="yes"/>
      <point x="219" y="350"/>
      <point x="198" y="339"/>
      <point x="192" y="322" type="curve" smooth="yes"/>
      <point x="130" y="139" type="line"/>
      <point x="139" y="137" type="line"/>
      <point x="106" y="314" type="line" smooth="yes"/>
      <point x="102" y="335"/>
      <point x="83" y="350"/>
      <point x="61" y="350" type="curve" smooth="yes"/>
      <point x="28" y="350"/>
      <point x="4" y="321"/>
      <point x="14" y="281" type="curve" smooth="yes"/>
    </contour>
  </outline>
</glyph>
<glyph name="braceleft" format="2">
  <advance width="360"/>
  <unicode hex="007B"/>
  <outline>
    <contour>
      <point x="155" y="-285" type="curve" smooth="yes"/>
      <point x="180" y="-311"/>
      <point x="211" y="-308"/>
      <point x="223" y="-289" type="curve" smooth="yes"/>
      <point x="239" y="-268"/>
      <point x="226" y="-252"/>
      <point x="209" y="-235" type="curve" smooth="yes"/>
      <point x="184" y="-211"/>
      <point x="167" y="-187"/>
      <point x="162" y="-139" type="curve" smooth="yes"/>
      <point x="157" y="-83"/>
      <point x="196" y="12"/>
      <point x="197" y="66" type="curve" smooth="yes"/>
      <point x="200" y="114"/>
      <point x="191" y="154"/>
      <point x="163" y="197" type="curve"/>
      <point x="198" y="219"/>
      <point x="210" y="255"/>
      <point x="216" y="302" type="curve" smooth="yes"/>
      <point x="221" y="357"/>
      <point x="200" y="459"/>
      <point x="214" y="511" type="curve" smooth="yes"/>
      <point x="227" y="552"/>
      <point x="260" y="567"/>
      <point x="289" y="576" type="curve" smooth="yes"/>
      <point x="311" y="585"/>
      <point x="322" y="605"/>
      <point x="310" y="628" type="curve" smooth="yes"/>
      <point x="298" y="656"/>
      <point x="265" y="652"/>
      <point x="243" y="642" type="curve" smooth="yes"/>
      <point x="215" y="629"/>
      <point x="141" y="599"/>
      <point x="124" y="540" type="curve" smooth="yes"/>
      <point x="107" y="475"/>
      <point x="125" y="369"/>
      <point x="120" y="316" type="curve" smooth="yes"/>
      <point x="116" y="291"/>
      <point x="107" y="273"/>
      <point x="89" y="254" type="curve" smooth="yes"/>
      <point x="70" y="235"/>
      <point x="63" y="225"/>
      <point x="62" y="206" type="curve" smooth="yes"/>
      <point x="61" y="182"/>
      <point x="71" y="172"/>
      <point x="82" y="153" type="curve" smooth="yes"/>
      <point x="97" y="126"/>
      <point x="103" y="103"/>
      <point x="101" y="79" type="curve" smooth="yes"/>
      <point x="98" y="26"/>
      <point x="60" y="-75"/>
      <point x="68" y="-143" type="curve" smooth="yes"/>
      <point x="75" y="-203"/>
      <point x="126" y="-256"/>
    </contour>
  </outline>
</glyph>
<glyph name="braceright" format="2">
  <advance width="360"/>
  <unicode hex="007D"/>
  <outline>
    <contour>
      <point x="78" y="-291" type="curve"/>
      <point x="111" y="-273"/>
      <point x="169" y="-235"/>
      <point x="188" y="-179" type="curve" smooth="yes"/>
      <point x="209" y="-116"/>
      <point x="197" y="-11"/>
      <point x="204" y="40" type="curve" smooth="yes"/>
      <point x="208" y="66"/>
      <point x="221" y="83"/>
      <point x="239" y="107" type="curve" smooth="yes"/>
      <point x="251" y="123"/>
      <point x="262" y="141"/>
      <point x="266" y="159" type="curve" smooth="yes"/>
      <point x="269" y="174"/>
      <point x="266" y="182"/>
      <point x="252" y="205" type="curve" smooth="yes"/>
      <point x="237" y="231"/>
      <point x="232" y="253"/>
      <point x="233" y="278" type="curve"/>
      <point x="239" y="332"/>
      <point x="279" y="430"/>
      <point x="273" y="497" type="curve" smooth="yes"/>
      <point x="268" y="558"/>
      <point x="207" y="607"/>
      <point x="180" y="630" type="curve" smooth="yes"/>
      <point x="158" y="648"/>
      <point x="126" y="662"/>
      <point x="109" y="637" type="curve" smooth="yes"/>
      <point x="96" y="618"/>
      <point x="99" y="598"/>
      <point x="122" y="580" type="curve" smooth="yes"/>
      <point x="147" y="562"/>
      <point x="176" y="536"/>
      <point x="181" y="493" type="curve" smooth="yes"/>
      <point x="183" y="437"/>
      <point x="143" y="343"/>
      <point x="137" y="289" type="curve" smooth="yes"/>
      <point x="133" y="241"/>
      <point x="140" y="202"/>
      <point x="165" y="167" type="curve"/>
      <point x="132" y="139"/>
      <point x="117" y="101"/>
      <point x="110" y="55" type="curve" smooth="yes"/>
      <point x="102" y="0"/>
      <point x="114" y="-99"/>
      <point x="99" y="-151" type="curve" smooth="yes"/>
      <point x="84" y="-195"/>
      <point x="65" y="-213"/>
      <point x="37" y="-227" type="curve" smooth="yes"/>
      <point x="13" y="-240"/>
      <point x="1" y="-254"/>
      <point x="9" y="-275" type="curve" smooth="yes"/>
      <point x="18" y="-300"/>
      <point x="52" y="-309"/>
    </contour>
  </outline>
</glyph>
<glyph name="degree" format="2">
  <advance width="349"/>
  <unicode hex="00B0"/>
  <outline>
    <contour>
      <point x="178" y="372" type="curve" smooth="yes"/>
      <point x="255" y="372"/>
      <point x="294" y="445"/>
      <point x="303" y="514" type="curve" smooth="yes"/>
      <point x="310" y="585"/>
      <point x="281" y="654"/>
      <point x="208" y="654" type="curve" smooth="yes"/>
      <point x="147" y="654"/>
      <point x="94" y="607"/>
      <point x="84" y="514" type="curve" smooth="yes"/>
      <point x="77" y="443"/>
      <point x="106" y="372"/>
    </contour>
    <contour>
      <point x="188" y="459" type="curve" smooth="yes"/>
      <point x="164" y="459"/>
      <point x="157" y="485"/>
      <point x="160" y="513" type="curve" smooth="yes"/>
      <point x="163" y="552"/>
      <point x="179" y="569"/>
      <point x="200" y="569" type="curve" smooth="yes"/>
      <point x="225" y="569"/>
      <point x="229" y="536"/>
      <point x="226" y="515" type="curve" smooth="yes"/>
      <point x="223" y="478"/>
      <point x="206" y="459"/>
    </contour>
  </outline>
</glyph>
<glyph name="plusminus" format="2">
  <advance width="426"/>
  <unicode hex="00B1"/>
  <outline>
    <contour>
      <point x="212" y="206" type="curve" smooth="yes"/>
      <point x="230.0" y="206.0"/>
      <point x="254" y="214"/>
      <point x="257" y="243" type="curve" smooth="yes"/>
      <point x="281" y="465" type="line" smooth="yes"/>
      <point x="285" y="500"/>
      <point x="265" y="520.0"/>
      <point x="244" y="520" type="curve" smooth="yes"/>
      <point x="227.0" y="520.0"/>
      <point x="201" y="515"/>
      <point x="198" y="486" type="curve" smooth="yes"/>
      <point x="174" y="263" type="line"/>
      <point x="166.0" y="225.0"/>
      <point x="191.0" y="206.0"/>
    </contour>
    <contour>
      <point x="112" y="322" type="curve" smooth="yes"/>
      <point x="339" y="322" type="line" smooth="yes"/>
      <point x="373.0" y="322.0"/>
      <point x="385.0" y="346.0"/>
      <point x="385" y="365" type="curve" smooth="yes"/>
      <point x="385.0" y="385.0"/>
      <point x="373.0" y="408.0"/>
      <point x="339" y="408" type="curve" smooth="yes"/>
      <point x="112" y="408" type="line" smooth="yes"/>
      <point x="78.0" y="408.0"/>
      <point x="66.0" y="385.0"/>
      <point x="66" y="365" type="curve" smooth="yes"/>
      <point x="66.0" y="345.0"/>
      <point x="78.0" y="322.0"/>
    </contour>
    <contour>
      <point x="88" y="100" type="curve" smooth="yes"/>
      <point x="315" y="100" type="line" smooth="yes"/>
      <point x="349.0" y="100.0"/>
      <point x="361.0" y="124"/>
      <point x="361" y="143" type="curve" smooth="yes"/>
      <point x="361.0" y="163.0"/>
      <point x="349.0" y="186.0"/>
      <point x="315" y="186" type="curve" smooth="yes"/>
      <point x="88" y="186" type="line" smooth="yes"/>
      <point x="54.0" y="186.0"/>
      <point x="42.0" y="163.0"/>
      <point x="42" y="143" type="curve" smooth="yes"/>
      <point x="42.0" y="123"/>
      <point x="54.0" y="100.0"/>
    </contour>
  </outline>
</glyph>
<glyph name="multiply" format="2">
  <advance width="426"/>
  <unicode hex="00D7"/>
  <outline>
    <contour>
      <point x="128" y="88" type="curve" smooth="yes"/>
      <point x="336" y="300" type="line" smooth="yes"/>
      <point x="365" y="329"/>
      <point x="357.0" y="348.0"/>
      <point x="341" y="364" type="curve" smooth="yes"/>
      <point x="327.0" y="378.0"/>
      <point x="302" y="387"/>
      <point x="278" y="363" type="curve" smooth="yes"/>
      <point x="68" y="150" type="line" smooth="yes"/>
      <point x="46" y="128"/>
      <point x="48.0" y="105.0"/>
      <point x="63" y="89" type="curve" smooth="yes"/>
      <point x="78" y="73.0"/>
      <point x="101" y="61"/>
    </contour>
    <contour>
      <point x="265" y="92" type="line" smooth="yes"/>
      <point x="288" y="66"/>
      <point x="311.0" y="70.0"/>
      <point x="327" y="82" type="curve" smooth="yes"/>
      <point x="346.0" y="96.0"/>
      <point x="354.0" y="118"/>
      <point x="335" y="144" type="curve"/>
      <point x="144" y="354" type="line" smooth="yes"/>
      <point x="118" y="383"/>
      <point x="96" y="379.0"/>
      <point x="81" y="368" type="curve" smooth="yes"/>
      <point x="63.0" y="354.0"/>
      <point x="54" y="326"/>
      <point x="73" y="305" type="curve" smooth="yes"/>
    </contour>
  </outline>
</glyph>
<glyph name="endash" format="2">
  <advance width="463"/>
  <unicode hex="2013"/>
  <outline>
    <contour>
      <point x="100" y="154" type="curve" smooth="yes"/>
      <point x="326" y="154" type="line" smooth="yes"/>
      <point x="362.0" y="154.0"/>
      <point x="384" y="172"/>
      <point x="384" y="200" type="curve" smooth="yes"/>
      <point x="384" y="227"/>
      <point x="365.0" y="244.0"/>
      <point x="335" y="244" type="curve" smooth="yes"/>
      <point x="109" y="244" type="line" smooth="yes"/>
      <point x="73" y="244"/>
      <point x="51" y="226"/>
      <point x="51" y="198" type="curve" smooth="yes"/>
      <point x="51" y="171"/>
      <point x="70" y="154"/>
    </contour>
  </outline>
</glyph>
<glyph name="emdash" format="2">
  <advance width="555"/>
  <unicode hex="2014"/>
  <outline>
    <contour>
      <point x="100" y="154" type="curve" smooth="yes"/>
      <point x="418" y="154" type="line" smooth="yes"/>
      <point x="454.0" y="154.0"/>
      <point x="476" y="172"/>
      <point x="476" y="200" type="curve" smooth="yes"/>
      <point x="476" y="227"/>
      <point x="457.0" y="244.0"/>
      <point x="427" y="244" type="curve" smooth="yes"/>
      <point x="109" y="244" type="line" smooth="yes"/>
      <point x="73" y="244"/>
      <point x="51" y="226"/>
      <point x="51" y="198" type="curve" smooth="yes"/>
      <point x="51" y="171"/>
      <point x="70" y="154"/>
    </contour>
  </outline>
</glyph>
<glyph name="ellipsis" format="2">
  <advance width="636"/>
  <unicode hex="2026"/>
  <outline>
    <contour>
      <point x="99" y="0" type="curve" smooth="yes"/>
      <point x="132" y="0"/>
      <point x="162" y="30"/>
      <point x="162" y="65" type="curve" smooth="yes"/>
      <point x="162" y="98"/>
      <point x="132" y="126"/>
      <point x="99" y="126" type="curve" smooth="yes"/>
      <point x="64" y="126"/>
      <point x="37" y="98"/>
      <point x="37" y="65" type="curve" smooth="yes"/>
      <point x="37" y="30"/>
      <point x="64" y="0"/>
    </contour>
    <contour>
      <point x="289" y="0" type="curve" smooth="yes"/>
      <point x="322" y="0"/>
      <point x="352" y="30"/>
      <point x="352" y="65" type="curve" smooth="yes"/>
      <point x="352" y="98"/>
      <point x="322" y="126"/>
      <point x="289" y="126" type="curve" smooth="yes"/>
      <point x="254" y="126"/>
      <point x="227" y="98"/>
      <point x="227" y="65" type="curve" smooth="yes"/>
      <point x="227" y="30"/>
      <point x="254" y="0"/>
    </contour>
    <contour>
      <point x="479" y="0" type="curve" smooth="yes"/>
      <point x="512" y="0"/>
      <point x="542" y="30"/>
      <point x="542" y="65" type="curve" smooth="yes"/>
      <point x="542" y="98"/>
      <point x="512" y="126"/>
      <point x="479" y="126" type="curve" smooth="yes"/>
      <point x="444" y="126"/>
      <point x="417" y="98"/>
      <point x="417" y="65" type="curve" smooth="yes"/>
      <point x="417" y="30"/>
      <point x="444" y="0"/>
    </contour>
  </outline>
</glyph>
<glyph name="infinity" format="2">
  <advance width="711"/>
  <unicode hex="221E"/>
  <outline>
    <contour>
      <point x="172" y="70" type="curve" smooth="yes"/>
      <point x="235" y="70"/>
      <point x="307" y="121"/>
      <point x="364" y="181" type="curve"/>
      <point x="306" y="246" type="line"/>
      <point x="266" y="206"/>
      <point x="214" y="157"/>
      <point x="178" y="157" type="curve" smooth="yes"/>
      <point x="148" y="157"/>
      <point x="136" y="181"/>
      <point x="146" y="220" type="curve" smooth="yes"/>
      <point x="156" y="260"/>
      <point x="182" y="284"/>
      <point x="214" y="284" type="curve" smooth="yes"/>
      <point x="234" y="284"/>
      <point x="264" y="258"/>
      <point x="291" y="217" type="curve" smooth="yes"/>
      <point x="321" y="173" type="line" smooth="yes"/>
      <point x="365" y="109"/>
      <point x="421" y="70"/>
      <point x="465" y="70" type="curve" smooth="yes"/>
      <point x="551" y="70"/>
      <point x="613" y="124"/>
      <point x="631" y="211" type="curve" smooth="yes"/>
      <point x="656" y="310"/>
      <point x="612" y="371"/>
      <point x="515" y="371" type="curve" smooth="yes"/>
      <point x="452" y="371"/>
      <point x="380" y="320"/>
      <point x="323" y="260" type="curve"/>
      <point x="381" y="195" type="line"/>
      <point x="421" y="235"/>
      <point x="473" y="284"/>
      <point x="509" y="284" type="curve" smooth="yes"/>
      <point x="541" y="284"/>
      <point x="551" y="261"/>
      <point x="541" y="221" type="curve" smooth="yes"/>
      <point x="531" y="181"/>
      <point x="507" y="157"/>
      <point x="473" y="157" type="curve" smooth="yes"/>
      <point x="448" y="157"/>
      <point x="418" y="183"/>
      <point x="396" y="224" type="curve" smooth="yes"/>
      <point x="366" y="278" type="line" smooth="yes"/>
      <point x="334" y="335"/>
      <point x="278" y="371"/>
      <point x="220" y="371" type="curve" smooth="yes"/>
      <point x="138" y="371"/>
      <point x="76" y="317"/>
      <point x="56" y="230" type="curve" smooth="yes"/>
      <point x="33" y="131"/>
      <point x="77" y="70"/>
    </contour>
  </outline>
</glyph>
<glyph name="approxequal" format="2">
  <advance width="426"/>
  <unicode hex="2248"/>
  <outline>
    <contour>
      <point x="113" y="119.0" type="curve" smooth="yes"/>
      <point x="124.0" y="124.0"/>
      <point x="136.0" y="131.0"/>
      <point x="146" y="131.0" type="curve" smooth="yes"/>
      <point x="179.0" y="131.0"/>
      <point x="214.0" y="109.0"/>
      <point x="249" y="109.0" type="curve" smooth="yes"/>
      <point x="276.0" y="109.0"/>
      <point x="303.0" y="116"/>
      <point x="323" y="124.0" type="curve" smooth="yes"/>
      <point x="354.0" y="137.0"/>
      <point x="362.0" y="162.0"/>
      <point x="353" y="183.0" type="curve" smooth="yes"/>
      <point x="343" y="205.0"/>
      <point x="322.0" y="215.0"/>
      <point x="288" y="201.0" type="curve" smooth="yes"/>
      <point x="278" y="197.0"/>
      <point x="265.0" y="192.0"/>
      <point x="256" y="192.0" type="curve" smooth="yes"/>
      <point x="221.0" y="192.0"/>
      <point x="190.0" y="214.0"/>
      <point x="153" y="214.0" type="curve" smooth="yes"/>
      <point x="125.0" y="214.0"/>
      <point x="98.0" y="205"/>
      <point x="79" y="196.0" type="curve" smooth="yes"/>
      <point x="47.0" y="181.0"/>
      <point x="38.0" y="157.0"/>
      <point x="48" y="136.0" type="curve" smooth="yes"/>
      <point x="58.0" y="114.0"/>
      <point x="80" y="104"/>
    </contour>
    <contour>
      <point x="128" y="259.0" type="curve" smooth="yes"/>
      <point x="139.0" y="264.0"/>
      <point x="151.0" y="271.0"/>
      <point x="161" y="271.0" type="curve" smooth="yes"/>
      <point x="194.0" y="271.0"/>
      <point x="229.0" y="249.0"/>
      <point x="264" y="249.0" type="curve" smooth="yes"/>
      <point x="291.0" y="249.0"/>
      <point x="318.0" y="256.0"/>
      <point x="338" y="264.0" type="curve" smooth="yes"/>
      <point x="369.0" y="277.0"/>
      <point x="377.0" y="302"/>
      <point x="368" y="323.0" type="curve" smooth="yes"/>
      <point x="358" y="345.0"/>
      <point x="337.0" y="355.0"/>
      <point x="303" y="341.0" type="curve" smooth="yes"/>
      <point x="293" y="337"/>
      <point x="280.0" y="332.0"/>
      <point x="271" y="332.0" type="curve" smooth="yes"/>
      <point x="236" y="332.0"/>
      <point x="205.0" y="354.0"/>
      <point x="168" y="354.0" type="curve" smooth="yes"/>
      <point x="140.0" y="354.0"/>
      <point x="113.0" y="345.0"/>
      <point x="94" y="336.0" type="curve" smooth="yes"/>
      <point x="62.0" y="321"/>
      <point x="53.0" y="297"/>
      <point x="63" y="276.0" type="curve" smooth="yes"/>
      <point x="73.0" y="254.0"/>
      <point x="95" y="244.0"/>
    </contour>
  </outline>
</glyph>
<glyph name="greaterequal" format="2">
  <advance width="426"/>
  <unicode hex="2265"/>
  <outline>
    <contour>
      <point x="88" y="106" type="curve" smooth="yes"/>
      <point x="315" y="106" type="line" smooth="yes"/>
      <point x="349.0" y="106.0"/>
      <point x="361.0" y="130"/>
      <point x="361" y="149" type="curve" smooth="yes"/>
      <point x="361.0" y="169.0"/>
      <point x="349.0" y="192.0"/>
      <point x="315" y="192" type="curve" smooth="yes"/>
      <point x="88" y="192" type="line" smooth="yes"/>
      <point x="54.0" y="192.0"/>
      <point x="42.0" y="169.0"/>
      <point x="42" y="149" type="curve" smooth="yes"/>
      <point x="42.0" y="129"/>
      <point x="54.0" y="106.0"/>
    </contour>
    <contour>
      <point x="108" y="221" type="curve" smooth="yes"/>
      <point x="313" y="221" type="line" smooth="yes"/>
      <point x="346.0" y="221.0"/>
      <point x="359.0" y="244.0"/>
      <point x="359" y="264" type="curve" smooth="yes"/>
      <point x="359.0" y="277.0"/>
      <point x="354.0" y="290.0"/>
      <point x="341" y="299" type="curve" smooth="yes"/>
      <point x="169" y="415" type="line" smooth="yes"/>
      <point x="140.0" y="435.0"/>
      <point x="119.0" y="425.0"/>
      <point x="106" y="409" type="curve"/>
      <point x="92.0" y="389.0"/>
      <point x="89" y="362.0"/>
      <point x="120" y="345" type="curve" smooth="yes"/>
      <point x="219" y="292" type="line"/>
      <point x="232" y="307" type="line"/>
      <point x="108" y="307" type="line" smooth="yes"/>
      <point x="74.0" y="307.0"/>
      <point x="61.0" y="283.0"/>
      <point x="61" y="264" type="curve"/>
      <point x="61.0" y="245.0"/>
      <point x="73.0" y="221.0"/>
    </contour>
  </outline>
</glyph>
<glyph name=".notdef" format="2">
  <advance width="611"/>
  <outline>
    <contour>
      <point x="467" y="0" type="line" smooth="yes"/>
      <point x="492" y="0"/>
      <point x="513" y="26"/>
      <point x="516" y="49" type="curve" smooth="yes"/>
      <point x="580" y="659" type="line" smooth="yes"/>
      <point x="583" y="687"/>
      <point x="567" y="700"/>
      <point x="530" y="700" type="curve"/>
      <point x="150" y="700" type="line"/>
      <point x="122" y="700"/>
      <point x="102" y="687"/>
      <point x="99" y="659" type="curve" smooth="yes"/>
      <point x="35" y="49" type="line" smooth="yes"/>
      <point x="32" y="21"/>
      <point x="47" y="0"/>
      <point x="86" y="0" type="curve" smooth="yes"/>
    </contour>
    <contour>
      <point x="141" y="95" type="line"/>
      <point x="196" y="605" type="line"/>
      <point x="473" y="605" type="line"/>
      <point x="418" y="95" type="line"/>
    </contour>
  </outline>
</glyph>
